<?xml version="1.0" encoding="UTF-8"?>
<svg width="40px" height="40px" viewBox="0 0 40 40" version="1.1" xmlns="http://www.w3.org/2000/svg" xmlns:xlink="http://www.w3.org/1999/xlink">
    <title>返回顶部</title>
    <g id="返回顶部" stroke="none" stroke-width="1" fill="none" fill-rule="evenodd">
        <rect id="Base" fill="#196CFE" x="0" y="0" width="40" height="40" rx="4"></rect>
        <path d="M20.5418316,14.5052043 C20.2440194,14.2278629 19.7557673,14.2278629 19.4579552,14.5052043 L10.541845,22.8280893 C10.2440328,23.1055373 10.3742706,23.3333405 10.8333411,23.3333405 L14.1667055,23.3333405 C14.6255895,23.3333405 14.9999134,23.6328504 14.9999134,24.0000384 L14.9999134,29.3333873 C14.9999134,29.7005327 15.3743439,30 15.8332811,30 L24.1666655,30 C24.625736,30 24.9999,29.7005114 24.9999,29.3333873 L24.9999,24.0000597 C24.9999,23.6328504 25.3742773,23.3333618 25.8333744,23.3333618 L29.1666855,23.3333618 C29.6255694,23.3333618 29.7558606,23.1055373 29.4579685,22.8281106 L20.5418316,14.5052043 Z" id="路径" fill="#FFFFFF" fill-rule="nonzero"></path>
        <path d="M11.6666023,12.6666638 L28.3333178,12.6666638 C29.2545501,12.6666638 30,12.0702445 30,11.3333319 C30,10.5963341 29.2545501,10 28.3333178,10 L11.6666023,10 C10.7454765,10 10,10.5963341 10,11.3333319 C10,12.0702445 10.7454499,12.6666638 11.6666023,12.6666638 Z" id="路径" fill="#FFFFFF" fill-rule="nonzero"></path>
    </g>
</svg>