<?xml version="1.0" encoding="UTF-8"?>
<svg width="20px" height="20px" viewBox="0 0 20 20" version="1.1" xmlns="http://www.w3.org/2000/svg" xmlns:xlink="http://www.w3.org/1999/xlink">
    <title>下架文章</title>
    <g id="下架文章" stroke="none" stroke-width="1" fill="none" fill-rule="evenodd" stroke-linecap="round">
        <path d="M19,10.0614731 L19,3.29669943 C19,2.02833252 17.971719,1 16.7033038,1 L3.29669624,1 C2.02828102,1 1,2.02833252 1,3.29669943 L1,16.7033256 C1,17.9717426 2.02828102,18.999975 3.29669624,18.999975 L10.3308354,18.999975" id="Stroke-1" stroke="#196CFE"></path>
        <line x1="5.74716647" y1="6.78126863" x2="14.2528536" y2="6.78126863" id="Stroke-3" stroke="#196CFE"></line>
        <line x1="5.73877479" y1="10.086508" x2="12.5504544" y2="10.086508" id="Stroke-5" stroke="#196CFE"></line>
        <line x1="5.70502783" y1="13.3075451" x2="10.3222034" y2="13.3075451" id="Stroke-7" stroke="#196CFE"></line>
        <path d="M16.2663407,19 C17.7764923,19 18.999995,17.7765957 18.999995,16.266442 C18.999995,14.7562883 17.7764923,13.5327839 16.2663407,13.5327839 C14.756189,13.5327839 13.5327865,14.7562883 13.5327865,16.266442 C13.5327865,17.7765957 14.756189,19 16.2663407,19 Z" id="Stroke-9" stroke="#196CFE"></path>
        <line x1="14.406963" y1="14.4069767" x2="18.1257884" y2="18.1258072" id="Stroke-11" stroke="#196CFE"></line>
    </g>
</svg>