<?xml version="1.0" encoding="UTF-8"?>
<svg width="20px" height="20px" viewBox="0 0 20 20" version="1.1" xmlns="http://www.w3.org/2000/svg" xmlns:xlink="http://www.w3.org/1999/xlink">
    <title>编辑</title>
    <g id="编辑" stroke="none" stroke-width="1" fill="none" fill-rule="evenodd" stroke-linecap="round">
        <g id="编组" transform="translate(1.000000, 1.000000)" stroke="#196CFE">
            <path d="M11.4875485,0.180553167 C11.7459778,-0.0601843891 12.1648541,-0.0601843891 12.4232834,0.180553167 L15.5544892,3.10599875 C15.8069185,3.34179374 15.8128113,3.72192144 15.5676142,3.96440637 L6.66631984,12.7592652 C6.57187313,12.8529242 6.44833705,12.916828 6.31296165,12.9418903 L1.78953747,13.7779815 C1.56753681,13.8191695 1.33851827,13.7517709 1.1821428,13.5992506 C1.02576734,13.4468301 0.963838583,13.2304059 1.01794589,13.0256641 L2.06880616,9.0654265 C2.09768124,8.95624088 2.15805642,8.85639121 2.24339596,8.77691087 L11.4888878,0.180553167 L11.4875485,0.180553167 Z" id="Stroke-1"></path>
            <line x1="0" y1="17.9501503" x2="18.0000536" y2="17.9501503" id="Stroke-3"></line>
            <line x1="9.4814425" y1="2.23931858" x2="13.3965077" y2="5.88787548" id="Stroke-5"></line>
        </g>
    </g>
</svg>