<?xml version="1.0" encoding="UTF-8"?>
<svg width="40px" height="40px" viewBox="0 0 40 40" version="1.1" xmlns="http://www.w3.org/2000/svg" xmlns:xlink="http://www.w3.org/1999/xlink">
    <title>HOOK</title>
    <g id="HOOK" stroke="none" stroke-width="1" fill="none" fill-rule="evenodd">
        <rect id="Base" stroke="none" fill="#196CFE" x="0" y="0" width="40" height="40" rx="20"></rect>
        <path d="M30.0388233,19.0389568 L28.4288523,19.0389568 C28.2157915,17.1366279 27.3718249,15.3752715 25.9984102,14.0015898 C24.6249954,12.6281751 22.8633721,11.7842085 20.9613102,11.5711477 L20.9613102,9.96117671 C20.9613102,9.43039357 20.5309166,9 20.0001335,9 C19.4693504,9 19.0389568,9.43039357 19.0389568,9.96117671 L19.0389568,11.5711477 C17.1366279,11.7842085 15.3752715,12.6281751 14.0015898,14.0015898 C12.6281751,15.3750046 11.7842085,17.1366279 11.5711477,19.0389568 L9.96117671,19.0389568 C9.43039357,19.0389568 9,19.4693504 9,20.0001335 C9,20.5309166 9.43039357,20.9613102 9.96117671,20.9613102 L11.5711477,20.9613102 C11.7842085,22.8636391 12.6281751,24.6249954 14.0015898,25.9986772 C15.3750046,27.3720919 17.1366279,28.2160584 19.0389568,28.4291193 L19.0389568,30.0390903 C19.0389568,30.5698734 19.4693504,31.000267 20.0001335,31.000267 C20.5309166,31.000267 20.9613102,30.5698734 20.9613102,30.0390903 L20.9613102,28.4291193 C22.8636391,28.2160584 24.6249954,27.3720919 25.9984102,25.9986772 C27.3718249,24.6252624 28.2157915,22.8636391 28.4288523,20.9613102 L30.0388233,20.9613102 C30.5696064,20.9613102 31,20.5309166 31,20.0001335 C31,19.4693504 30.5696064,19.0389568 30.0388233,19.0389568 Z M26.4899453,19.0389568 L20.9610432,19.0389568 L20.9610432,13.5100547 C23.8109322,13.9303026 26.0699644,16.1893348 26.4899453,19.0389568 L26.4899453,19.0389568 Z M19.0386898,13.5100547 L19.0386898,19.0389568 L13.5097877,19.0389568 C13.9300356,16.1893348 16.1890678,13.9303026 19.0386898,13.5100547 L19.0386898,13.5100547 Z M13.5097877,20.9613102 L19.0386898,20.9613102 L19.0386898,26.4902123 C16.1890678,26.0699644 13.9300356,23.8109322 13.5097877,20.9613102 Z M20.9610432,26.4902123 L20.9610432,20.9613102 L26.4899453,20.9613102 C26.0699644,23.8109322 23.8109322,26.0699644 20.9610432,26.4902123 Z" id="形状" stroke="#FFFFFF" stroke-width="0.5" fill="#FFFFFF" fill-rule="nonzero"></path>
    </g>
</svg>
