<?xml version="1.0" encoding="UTF-8"?>
<svg width="40px" height="40px" viewBox="0 0 40 40" version="1.1" xmlns="http://www.w3.org/2000/svg" xmlns:xlink="http://www.w3.org/1999/xlink">
    <title>设备列表</title>
    <g id="设备列表" stroke="none" stroke-width="1" fill="none" fill-rule="evenodd">
        <g id="shouji" transform="translate(11.000000, 26.172941)"></g>
        <rect id="Base" fill="#196CFE" x="0" y="0" width="40" height="40" rx="20"></rect>
        <path d="M26.0545455,10.5529412 C26.5945455,10.5529412 27.0363636,10.9023529 27.0363636,11.3294118 L27.0363636,28.6705882 C27.0363636,29.0976471 26.5945455,29.4470588 26.0545455,29.4470588 L13.9454545,29.4470588 C13.4054545,29.4470588 12.9636364,29.0976471 12.9636364,28.6705882 L12.9636364,11.3294118 C12.9636364,10.9023529 13.4054545,10.5529412 13.9454545,10.5529412 L26.0545455,10.5529412 M26.0545455,9 L13.9454545,9 C12.3254545,9 11,10.0482353 11,11.3294118 L11,28.6705882 C11,29.9517647 12.3254545,31 13.9454545,31 L26.0545455,31 C27.6745455,31 29,29.9517647 29,28.6705882 L29,11.3294118 C29,10.0482353 27.6745455,9 26.0545455,9 L26.0545455,9 Z" id="形状" fill="#FFFFFF" fill-rule="nonzero"></path>
        <path d="M27.1181818,26.1729412 L12.8818182,26.1729412 C11.8509091,26.1729412 11,26.8329412 11,27.6611765 L11,28.7870588 C11,29.6023529 11.8345455,30.2752941 12.8818182,30.2752941 L27.1181818,30.2752941 C28.1490909,30.2752941 29,29.6152941 29,28.7870588 L29,27.6611765 C29,26.8329412 28.1490909,26.1729412 27.1181818,26.1729412 Z M19.9672727,29.2141176 C19.1490909,29.2141176 18.4781818,28.6835294 18.4781818,28.0364706 C18.4781818,27.3894118 19.1490909,26.8588235 19.9672727,26.8588235 C20.7854545,26.8588235 21.4563636,27.3894118 21.4563636,28.0364706 C21.4563636,28.6835294 20.7854545,29.2141176 19.9672727,29.2141176 Z" id="形状" fill="#FFFFFF" fill-rule="nonzero"></path>
    </g>
</svg>