<?xml version="1.0" encoding="UTF-8"?>
<svg width="32px" height="32px" viewBox="0 0 32 32" version="1.1" xmlns="http://www.w3.org/2000/svg" xmlns:xlink="http://www.w3.org/1999/xlink">
    <title>发布文章</title>
    <g id="发布文章" stroke="none" stroke-width="1" fill="none" fill-rule="evenodd" opacity="0.499982561">
        <path d="M21.4092032,14.5956514 C21.3473144,14.5956514 21.2869164,14.6019368 21.2281912,14.613594 C21.187538,14.602156 21.1445212,14.5956514 21.1013591,14.5956514 L12.114245,14.5956514 C12.0876278,14.5956514 12.0619559,14.5983921 12.037084,14.6025215 C12.0004307,14.5981729 11.9629411,14.5956514 11.9254878,14.5956514 C11.3982692,14.5956514 10.9712655,15.0362142 10.9712655,15.5796455 C10.9712655,16.1232231 11.3982693,16.5637859 11.9254878,16.5637859 C11.962941,16.5637859 12.0002489,16.5612279 12.037084,16.5567331 C12.0619559,16.5610451 12.0876278,16.5637859 12.114245,16.5637859 L21.101359,16.5637859 C21.144703,16.5637859 21.187538,16.557135 21.2281911,16.5458798 C21.28688,16.5575004 21.347278,16.5637859 21.4092032,16.5637859 C21.9360217,16.5637859 22.3629163,16.1232231 22.3629163,15.5796455 C22.3629163,15.0362141 21.9360217,14.5956514 21.4092032,14.5956514 Z M25.0433347,18.7631646 C24.9812278,18.7631646 24.9202844,18.7694866 24.8613409,18.780888 C24.8214877,18.76945 24.7786891,18.7631646 24.7345088,18.7631646 L12.1140632,18.7631646 C12.0873732,18.7631646 12.0619559,18.7659054 12.0371204,18.7698885 C12.0002489,18.7655765 11.9627956,18.7631646 11.925306,18.7631646 C11.3980874,18.7631646 10.9713019,19.2035812 10.9713019,19.7472684 C10.9713019,20.2905536 11.3983057,20.7313357 11.925306,20.7313357 C11.9629774,20.7313357 12.0002489,20.7285949 12.0371204,20.7242463 C12.0619923,20.7285949 12.0873732,20.7313357 12.1140632,20.7313357 L24.7345088,20.7313357 C24.7786892,20.7313357 24.8215241,20.7246483 24.8613409,20.7131738 C24.9202844,20.7250503 24.9812278,20.7313357 25.0433348,20.7313357 C25.5699715,20.7313357 25.9968298,20.2905537 25.9968298,19.7472684 C25.9968298,19.2035812 25.5701533,18.7631646 25.0433347,18.7631646 Z M25.0433347,22.9306413 C24.9812278,22.9306413 24.9202844,22.9369267 24.8613409,22.9483647 C24.8214877,22.9369267 24.7786891,22.9306413 24.7345088,22.9306413 L12.1140632,22.9306413 C12.0873732,22.9306413 12.0619559,22.9329435 12.0371204,22.9373287 C12.0002489,22.9329801 11.9627956,22.9306413 11.925306,22.9306413 C11.3980874,22.9306413 10.9713019,23.3709848 10.9713019,23.914672 C10.9713019,24.4579207 11.3983057,24.8987758 11.925306,24.8987758 C11.9629774,24.8987758 12.0002489,24.8959985 12.0371204,24.8916499 C12.0619923,24.8959985 12.0873732,24.8987758 12.1140632,24.8987758 L24.7345088,24.8987758 C24.7786892,24.8987758 24.8215241,24.8920153 24.8613409,24.8806504 C24.9202844,24.8924538 24.9812278,24.8987758 25.0433348,24.8987758 C25.5699715,24.8987758 25.9968298,24.4579572 25.9968298,23.914672 C25.9968298,23.3709848 25.5701533,22.9306413 25.0433347,22.9306413 Z M31.9994266,30.0037639 L31.9994266,1.99207017 C31.9994266,1.99207017 32.0519339,0 29.7301579,0 L2.27028732,0 C0.051707861,0 2.67393244e-07,1.99207017 2.67393244e-07,1.99207017 L2.67393244e-07,30.0062854 C2.67393244e-07,30.0038005 -0.00705375758,31.9985748 2.27028732,31.9985748 L8.74497728,31.9985748 C8.76610384,31.9985748 8.78712131,32 8.80788425,32 C8.83119254,32 8.85406451,31.9985748 8.87751825,31.9985748 L29.7299398,31.9985748 C32.0974596,31.9985383 31.9994266,30.0037639 31.9994266,30.0037639 Z M6.95649233,30.0980449 L3.02120734,30.1005664 C2.02713189,30.1005664 1.91131764,29.1829709 1.91131764,29.1829709 L1.91131764,2.70429378 C1.91131764,1.82481271 3.02517083,1.93626895 3.02517083,1.93626895 L6.95649233,1.93626895 L6.95649233,30.0980449 L6.95649233,30.0980449 Z M29.0552353,30.0637676 L8.90086289,30.0637676 L8.90086289,1.93619585 L18.9212147,1.93619585 L18.9212147,10.4787867 L21.9298765,7.71690112 L24.9633011,10.4787867 L24.9633011,1.93619585 L28.9848013,1.93619585 C30.1118177,1.93619585 30.0549469,2.70798463 30.0549469,2.70798463 L30.0549469,29.2923077 C30.0549106,29.2923077 30.1099996,30.0637676 29.0552353,30.0637676 Z" id="形状" fill="#999999" fill-rule="nonzero"></path>
    </g>
</svg>