<?xml version="1.0" standalone="no"?><!DOCTYPE svg PUBLIC "-//W3C//DTD SVG 1.1//EN" "http://www.w3.org/Graphics/SVG/1.1/DTD/svg11.dtd"><svg t="1684909501942" class="icon" viewBox="0 0 1024 1024" version="1.1" xmlns="http://www.w3.org/2000/svg" p-id="2473" xmlns:xlink="http://www.w3.org/1999/xlink" width="200" height="200"><path d="M69.37772 957.542l215.398-44.134 16.077 8.294A458.547 458.547 0 0 0 512.00072 972.8 460.8 460.8 0 1 0 51.20072 512c0 80.128 20.48 157.184 58.828 225.434l9.933 17.766-50.585 202.342z m10.29 50.176a51.2 51.2 0 0 1-59.903-62.617l45.568-182.58A509.696 509.696 0 0 1 0.00072 512C0.00072 229.222 229.22372 0 512.00072 0s512 229.222 512 512-229.223 512-512 512c-84.583 0-164.352-20.48-234.65-56.832l-197.632 40.5z" p-id="2474" fill="#e26617"></path></svg>