<?xml version="1.0" encoding="UTF-8"?>
<svg width="36px" height="36px" viewBox="0 0 36 36" version="1.1" xmlns="http://www.w3.org/2000/svg" xmlns:xlink="http://www.w3.org/1999/xlink">
    <title>截屏</title>
    <g id="截屏" stroke="none" stroke-width="1" fill="none" fill-rule="evenodd">
        <rect id="Base" fill="#196CFE" x="0" y="0" width="36" height="36" rx="18"></rect>
        <g id="jietu" transform="translate(8.000000, 8.000000)" fill="#FFFFFF" fill-rule="nonzero">
            <polygon id="路径" points="16.8417996 16.9082126 3.0005505 16.9082126 16.8538986 3.07971014"></polygon>
            <path d="M3.28589318,17.4589372 C2.85899227,17.4589372 2.50969432,17.1102657 2.50969432,16.6841304 L2.50969432,0.774806763 C2.50969432,0.348671498 2.85899227,0 3.28589318,0 C3.71279408,0 4.06209204,0.348671498 4.06209204,0.774806763 L4.06209204,16.6841304 C4.06209204,17.1102657 3.71281828,17.4589372 3.28589318,17.4589372 L3.28589318,17.4589372 Z" id="路径"></path>
            <path d="M20,16.6841304 C20,17.1102657 19.650702,17.4589372 19.2238011,17.4589372 L3.28589318,17.4589372 C2.85899227,17.4589372 2.50969432,17.1102657 2.50969432,16.6841304 C2.50969432,16.2579952 2.85899227,15.9093237 3.28589318,15.9093237 L19.2238011,15.9093237 C19.6507262,15.9093237 20,16.2579952 20,16.6841304 Z" id="路径"></path>
            <path d="M16.7141068,2.5410628 C17.1410077,2.5410628 17.4903057,2.8897343 17.4903057,3.31586957 L17.4903057,19.2251932 C17.4903057,19.6513285 17.1410077,20 16.7141068,20 C16.2872059,20 15.937908,19.6513285 15.937908,19.2251932 L15.937908,3.31586957 C15.937908,2.8897343 16.2872059,2.5410628 16.7141068,2.5410628 Z" id="路径"></path>
            <path d="M0,3.31586957 C0,2.8897343 0.349297956,2.5410628 0.776198859,2.5410628 L16.7141068,2.5410628 C17.1410077,2.5410628 17.4903057,2.8897343 17.4903057,3.31586957 C17.4903057,3.74200483 17.1410077,4.09067633 16.7141068,4.09067633 L0.776198859,4.09067633 C0.349297956,4.09067633 0,3.74200483 0,3.31586957 Z" id="路径"></path>
            <path d="M19.06453,0.938550725 C19.3663999,1.23987923 19.3663999,1.73297101 19.06453,2.03429952 L3.84070465,17.2308213 C3.53883475,17.5321498 3.04485702,17.5321498 2.74298712,17.2308213 C2.44111722,16.9294928 2.44111722,16.436401 2.74298712,16.1350725 L17.9668125,0.938550725 C18.2687066,0.637222222 18.7626601,0.637222222 19.06453,0.938550725 Z" id="路径"></path>
        </g>
    </g>
</svg>