<?xml version="1.0" encoding="UTF-8"?>
<svg width="36px" height="36px" viewBox="0 0 36 36" version="1.1" xmlns="http://www.w3.org/2000/svg" xmlns:xlink="http://www.w3.org/1999/xlink">
    <title>停止运行</title>
    <g id="停止运行" stroke="none" stroke-width="1" fill="none" fill-rule="evenodd">
        <rect id="Base" fill="#196CFE" x="0" y="0" width="36" height="36" rx="18"></rect>
        <g id="编组" transform="translate(8.000000, 8.000000)" fill="#FFFFFF" fill-rule="nonzero">
            <path d="M10,0 C15.5117496,0 19.9977726,4.48490923 20,10 C20,15.5150908 15.5150908,20.0011137 10,20.0011137 C4.48490923,20.0011137 0,15.5150908 0,10 C0,4.48490923 4.48490923,0 10,0 Z M10,2.2229647 C5.70707756,2.22726095 2.22787576,5.70596451 2.2229647,9.99888629 C2.22726205,14.292243 5.70664328,17.7716242 10,17.7759216 C14.2866689,17.7759216 17.7759216,14.2877826 17.7759216,9.99888629 C17.7736942,5.71110369 14.2866689,2.2229647 10,2.2229647 L10,2.2229647 Z" id="形状"></path>
            <path d="M9.09455396,13.6752422 C8.3004789,14.15191 7.30593607,13.557189 7.30593607,12.6027397 L7.30593607,7.39837398 C7.30593607,6.44503842 8.29936519,5.84808999 9.09455396,6.32587148 L13.4313398,8.9286112 C14.2254149,9.40639269 14.2254149,10.5980621 13.4313398,11.0747299 L9.09455396,13.6752422 Z" id="路径"></path>
        </g>
        <rect id="矩形" fill="#FFFFFF" transform="translate(18.000000, 18.000000) rotate(-330.000000) translate(-18.000000, -18.000000) " x="8" y="17" width="20" height="2"></rect>
    </g>
</svg>