<?xml version="1.0" encoding="UTF-8"?>
<svg width="20px" height="20px" viewBox="0 0 20 20" version="1.1" xmlns="http://www.w3.org/2000/svg" xmlns:xlink="http://www.w3.org/1999/xlink">
    <title>查看</title>
    <g id="查看" stroke="none" stroke-width="1" fill="none" fill-rule="evenodd" stroke-linecap="round">
        <path d="M6.78244885,19 L3.29669687,19 C2.02828131,19 1,17.9717665 1,16.7033481 L1,13.3601371" id="Stroke-11" stroke="#196CFE"></path>
        <path d="M13.2176012,19 L16.7033031,19 C17.9717187,19 19,17.9717665 19,16.7033481 L19,13.3601371" id="Stroke-9" stroke="#196CFE"></path>
        <path d="M13.2176012,1 L16.7033031,1 C17.9717187,1 19,2.02823353 19,3.29665192 L19,6.63991298" id="Stroke-7" stroke="#196CFE"></path>
        <path d="M6.78244885,1 L3.29669687,1 C2.02828131,1 1,2.02823353 1,3.29665192 L1,6.63991298" id="Stroke-5" stroke="#196CFE"></path>
        <line x1="13.5193863" y1="12.4986761" x2="16.1604125" y2="15.1397081" id="Stroke-3" stroke="#196CFE"></line>
        <path d="M10.0000576,4.86031693 C7.44309844,4.86031693 5.36996275,6.93345723 5.36996275,9.49042206 C5.36996275,12.0473368 7.44309844,14.1204771 10.0000576,14.1204771 C12.5569667,14.1204771 14.6301023,12.0473368 14.6301023,9.49042206 C14.6301023,6.93345723 12.5569667,4.86031693 10.0000576,4.86031693 Z" id="Stroke-1" stroke="#196CFE"></path>
    </g>
</svg>