<?xml version="1.0" encoding="UTF-8"?>
<svg width="20px" height="20px" viewBox="0 0 20 20" version="1.1" xmlns="http://www.w3.org/2000/svg" xmlns:xlink="http://www.w3.org/1999/xlink">
    <title>检测详情</title>
    <g id="检测详情" stroke="none" stroke-width="1" fill="none" fill-rule="evenodd" stroke-linecap="round">
        <path d="M18.999985,10.0614731 L18.999985,3.29669943 C18.999985,2.02828245 17.9717048,1 16.7032907,1 L3.29669432,1 C2.02828017,1 1,2.02828245 1,3.29669943 L1,16.7033256 C1,17.9717426 2.02828017,18.999975 3.29669432,18.999975 L10.3308276,18.999975" id="Stroke-1" stroke="#196CFE"></path>
        <line x1="5.7471575" y1="6.78124359" x2="14.2528375" y2="6.78124359" id="Stroke-3" stroke="#196CFE"></line>
        <line x1="5.73876583" y1="10.086508" x2="12.5504397" y2="10.086508" id="Stroke-5" stroke="#196CFE"></line>
        <line x1="5.70502891" y1="13.3075451" x2="10.3222006" y2="13.3075451" id="Stroke-7" stroke="#196CFE"></line>
        <path d="M15.7370518,13.6788123 C14.4134108,13.6788123 13.3402683,14.7519572 13.3402683,16.0756011 C13.3402683,17.399195 14.4134108,18.47239 15.7370518,18.47239 C17.0606427,18.47239 18.1338353,17.399195 18.1338353,16.0756011 C18.1338353,14.7519572 17.0606427,13.6788123 15.7370518,13.6788123 Z" id="Stroke-9" stroke="#196CFE"></path>
        <line x1="17.5730153" y1="17.5730121" x2="19" y2="19" id="Stroke-11" stroke="#196CFE"></line>
    </g>
</svg>